<svg id="Capa_1" data-name="Capa 1" xmlns="http://www.w3.org/2000/svg" viewBox="0 0 554.62 499.92"><defs><style>.cls-1{fill:#26c4ff;}.cls-2{fill:#ff991a;}.cls-3{fill:#fff;}</style></defs><path class="cls-1" d="M296.84,401a70.55,70.55,0,0,1-15.15-.29l-1.8-.25q-1.33-.25-2.7-.57a62.69,62.69,0,0,1-16.9-6.72l-19.45-12-52.79-44.51a16.05,16.05,0,0,1-2.19-4,15.67,15.67,0,0,1-.5-1.63,12.79,12.79,0,0,1,.86-7.2,22.28,22.28,0,0,1,2.49-2.66c.33-.29.64-.57,1-.82A10.64,10.64,0,0,1,192,319a10.11,10.11,0,0,1,1-.37,11,11,0,0,1,1.65-.5,10.49,10.49,0,0,1,2.34-.22c.3,0,.63.07,1,.13a11.5,11.5,0,0,1,1.65.44l26.92,21.14,4.42.56,4.79-2.77,1-6.23L183,228.78l-2.43-6.71a11.67,11.67,0,0,1,2.79-6.61,14,14,0,0,1,1.92-1.65,14.57,14.57,0,0,1,1.64-1l1.88-.72,2.85-.57a15.28,15.28,0,0,1,2.06,0c.43,0,.84,0,1.21.1a7,7,0,0,1,1,.37,9.05,9.05,0,0,1,3.29,2.51l43,78.46a6.94,6.94,0,0,0,1.2,1,6.57,6.57,0,0,0,1.48.72,20.74,20.74,0,0,0,4.85-1c.43-.14.83-.28,1.22-.44a10.86,10.86,0,0,0,2.22-4.26,10.51,10.51,0,0,0,.35-2.52L240.38,261l-35.91-68.63-3.24-7.86a9.8,9.8,0,0,1,.28-3.72,9,9,0,0,1,.84-2l.24-.34.41-.57c.16-.21.19-.22.34-.42s.12-.17.19-.27l.15-.2.12-.18a3.32,3.32,0,0,1,.31-.37,13.53,13.53,0,0,1,1.54-1.33l1.09-.72c1.33-.44,1.81-.57,1.81-.57a15.15,15.15,0,0,1,2.11-.41l3.53-.08a11.25,11.25,0,0,1,3.07.71,11.43,11.43,0,0,1,3.61,2.25L272,276a16.55,16.55,0,0,0,6,1,16.48,16.48,0,0,0,1.63-1.18,16.65,16.65,0,0,0,2.27-2.24,19.81,19.81,0,0,0,.62-3,19.44,19.44,0,0,0,.11-3.66l-5.09-11L239.34,184c-.3-.74-.59-1.48-.88-2.22a11.85,11.85,0,0,1,1-7.82,11.19,11.19,0,0,1,1-1.46,8.46,8.46,0,0,1,4-3.45l2.92-.93h.17a7.86,7.86,0,0,1,2.28-.38c.72,0,1.85.1,1.85.1a7,7,0,0,1,1.55.35,7.44,7.44,0,0,1,3.27,2.34l46.23,86.15a22,22,0,0,0,2.52,1,25.18,25.18,0,0,0,3.25.86,6.18,6.18,0,0,0,3.28-1.26,5.55,5.55,0,0,0,.94-.94,13.82,13.82,0,0,0,1.33-5.92l-28.8-56.14c-2.11-4.88-1.65-7.77-.76-9.52,1.4-2.78,5.32-5.61,5.38-5.67a7.55,7.55,0,0,1,6.76-.93,6.87,6.87,0,0,1,2.28,1,7,7,0,0,1,2.15,2.17l60.76,115.77,8.57,13.6c.16.35.32.7.47,1.06a46.39,46.39,0,0,1,3.49,14.82,62.13,62.13,0,0,1,.25,19.7c0,.33-.11.85-.24,1.48a15.09,15.09,0,0,1-1.14,3.27c-.78,1.65-2.31,5.15-4.39,9.86a49.62,49.62,0,0,1-11.69,15.74c-1.82,1.59-3.82,3.22-6,4.85a99.71,99.71,0,0,1-9.35,6.14A128.28,128.28,0,0,1,296.84,401Z" transform="translate(-27.85 -167.33)"/><path class="cls-2" d="M342.82,401.6A70.15,70.15,0,0,0,358,401l1.8-.29c.88-.19,1.78-.4,2.68-.63a62.37,62.37,0,0,0,16.76-7.1l19.17-12.42,51.8-45.69a16,16,0,0,0,2.09-4,15.22,15.22,0,0,0,.47-1.63,12.78,12.78,0,0,0-.05-4,12.45,12.45,0,0,0-1-3.14,22.11,22.11,0,0,0-2.55-2.61c-.33-.28-.66-.55-1-.79a10.07,10.07,0,0,0-2.32-1.35,9.75,9.75,0,0,0-1-.35,10.91,10.91,0,0,0-1.67-.46,10.11,10.11,0,0,0-2.34-.17,9.77,9.77,0,0,0-1,.16,10.37,10.37,0,0,0-1.64.47l-26.44,21.73-4.41.67-4.85-2.66-1.1-6.21L452.8,226.83l2.28-6.77a11.65,11.65,0,0,0-2.94-6.54,14,14,0,0,0-3.62-2.59l-1.89-.68-2.87-.5a15.54,15.54,0,0,0-2.05,0c-.43,0-.83.07-1.21.13a8.53,8.53,0,0,0-1,.39,9.1,9.1,0,0,0-3.23,2.59q-20.61,39.69-41.21,79.4a7.1,7.1,0,0,1-1.18,1,6.48,6.48,0,0,1-1.47.76,21,21,0,0,1-4.87-.85c-.43-.13-.84-.27-1.23-.41a10.87,10.87,0,0,1-2.72-6.72l12.57-25.73,34.38-69.42L433.6,183a9.7,9.7,0,0,0-.36-3.72,9.44,9.44,0,0,0-.88-2l-.25-.33c.25.32-.42-.56-.42-.56-.17-.2-.2-.22-.35-.41l-.2-.26c-.07-.1-.13-.17-.15-.21l-.13-.17a3.08,3.08,0,0,0-.32-.36,12.4,12.4,0,0,0-1.57-1.3l-1.1-.7c-1.34-.4-1.82-.52-1.82-.52a12.65,12.65,0,0,0-2.12-.36H420.4a11.08,11.08,0,0,0-3.06.77,11.22,11.22,0,0,0-3.55,2.33L364.86,276.07a17.86,17.86,0,0,1-2.95.83,16.63,16.63,0,0,1-3,.28,17.05,17.05,0,0,1-1.65-1.14,16.63,16.63,0,0,1-2.32-2.19,19.25,19.25,0,0,1-.69-3,20.26,20.26,0,0,1-.19-3.66q2.43-5.55,4.85-11.09l36.59-72.75.82-2.25a11.91,11.91,0,0,0-1.15-7.79,10.12,10.12,0,0,0-1-1.44,8.31,8.31,0,0,0-4.07-3.35l-3-.87H387a7.66,7.66,0,0,0-2.28-.34c-.72,0-1.85.14-1.85.14a7,7,0,0,0-1.54.39,7.53,7.53,0,0,0-3.23,2.41q-22.14,43.59-44.3,87.17a25.35,25.35,0,0,1-2.5,1.07,23.93,23.93,0,0,1-3.23.92,6.1,6.1,0,0,1-3.3-1.18,6.18,6.18,0,0,1-1-.91,13.85,13.85,0,0,1-.83-2.08,14.1,14.1,0,0,1-.63-3.81q13.77-28.39,27.55-56.78c2-4.93,1.48-7.8.55-9.54-1.46-2.74-5.44-5.48-5.51-5.54a7.45,7.45,0,0,0-3.52-1.22,7.67,7.67,0,0,0-3.25.44,7,7,0,0,0-4.36,3.22q-29.08,58.54-58.19,117.1l-8.26,13.79c-.15.35-.3.71-.44,1.07a46.27,46.27,0,0,0-3.16,14.9,62.18,62.18,0,0,0-.7,9.8,61.56,61.56,0,0,0,.88,9.9c0,.33.13.85.28,1.47a14.52,14.52,0,0,0,1.21,3.25c.82,1.63,2.42,5.1,4.6,9.76a50.14,50.14,0,0,0,12,15.47c1.85,1.54,3.89,3.13,6.12,4.71a97.51,97.51,0,0,0,9.48,5.93,127.92,127.92,0,0,0,45.18,12.42Z" transform="translate(-27.85 -167.33)"/><path class="cls-3" d="M318.5,314.28l2.5-3.54a12.27,12.27,0,0,1,2-1.78,11.86,11.86,0,0,1,1.7-1,13.38,13.38,0,0,1,4.55-1.83l.94-.13c1.24-.17,2.44-.27,2.44-.27h0a17.89,17.89,0,0,1,5.89.23,18.19,18.19,0,0,1,6.9,3,18.93,18.93,0,0,1,3.09,2.07,19.63,19.63,0,0,1,5.8,8.35h0a19,19,0,0,1,1,4.44,18.61,18.61,0,0,1-.24,5A28.69,28.69,0,0,1,350,342.16l-31.6,31.49-30.26-32.16a29.07,29.07,0,0,1-3.14-4.66,29.83,29.83,0,0,1-2.45-6,20.91,20.91,0,0,1,.88-11.82,17.15,17.15,0,0,1,2.26-4.95,16.88,16.88,0,0,1,2.15-2.6,16.23,16.23,0,0,1,6-4.73,40.71,40.71,0,0,1,9.4-1.33,22.94,22.94,0,0,1,7,2.11A23.37,23.37,0,0,1,318.5,314.28Z" transform="translate(-27.85 -167.33)"/><path class="cls-2" d="M582.46,603.57a7.4,7.4,0,0,0-.47-2.91,7,7,0,0,0-1.73-2.56l-8.82-10.55a26.32,26.32,0,0,0-7-5.3c-.4-.21-.79-.4-1.17-.58q1.68-42.46,3.38-84.93a129.41,129.41,0,0,0-.29-15.08q-.24-3-.59-5.76a8.78,8.78,0,0,0-1.35-2.67,9.1,9.1,0,0,0-4.35-3.1,6.09,6.09,0,0,0-4.17.66l-35.12,57.45a12.42,12.42,0,0,1-6.36,4.21,11.88,11.88,0,0,1-3.51.22,12.18,12.18,0,0,1-4.17-1.1,25.66,25.66,0,0,1-3.4-5.38,26,26,0,0,1-2.14-6.88l-.39-33a13.5,13.5,0,0,0-4.77-5.77,4.65,4.65,0,0,0-2.19-1,4.74,4.74,0,0,0-2.53.27,11.94,11.94,0,0,0-7,4.49q-.45,22.29-.88,44.58c-1.39,5-3.12,10.4-5.27,16.05A180.31,180.31,0,0,1,469,565.28a7.22,7.22,0,0,1-7.75,3.62,7.09,7.09,0,0,1-4.32-3.62,133,133,0,0,1-1.53-64.76l2.34-8.88c1.73-4.27.65-8.72-2.2-10.72a7.39,7.39,0,0,0-5.41-1,17.53,17.53,0,0,0-8.56,3.55l-19.53-.22a31.67,31.67,0,0,0-14.26,3,32.19,32.19,0,0,0-12.51,10.63,109.7,109.7,0,0,0-6.37,9.76,74.5,74.5,0,0,0-7,20.7,37.31,37.31,0,0,0-.66,5.21c0,3.15.65,5.37-.33,8.54a10.62,10.62,0,0,1-.47,1.3,28.11,28.11,0,0,1-1.28,2.88,27.8,27.8,0,0,1-7.65,9.13,7.83,7.83,0,0,1-1.46.89,3.39,3.39,0,0,1-1.9.15l-1.61-1.56c-.29-1.06-.58-2.12-.88-3.18q-.29-19.29-.58-38.59l.36-19.07a19.61,19.61,0,0,0-.52-4,20,20,0,0,0-2.48-5.95l-3.65-4.21a12.49,12.49,0,0,0-2.81-1.7,12.66,12.66,0,0,0-2.24-.74l-2.07-.07-2.54-.08a19.32,19.32,0,0,0-10.53,3l-13.43,13-16.56,21.87-8.78,15.08,3.87-39.18a5.12,5.12,0,0,0-1.17-3.62,4.67,4.67,0,0,0-1.9-1.33,10,10,0,0,0-5.78.52,19.43,19.43,0,0,0-7.31,5.32,21.46,21.46,0,0,0-1.41,2.49,21.76,21.76,0,0,0-1.3,3.42c-.46,2.66-.92,5.33-1.39,8q-.87,12.27-1.75,24.54a207,207,0,0,1-12.17,18.67q-1.89,2.56-3.78,5a6.13,6.13,0,0,1-1.68.89,5.89,5.89,0,0,1-2.42.29,5.77,5.77,0,0,1-3.29-2.14,6.61,6.61,0,0,1-1.1-4.22c.25-8.16,2.25-41.76,2.25-41.76a9.66,9.66,0,0,0-.13-4.32,5.75,5.75,0,0,0-1.13-2,9.71,9.71,0,0,0-1.23-.8,10.66,10.66,0,0,0-2.17-.92,10.78,10.78,0,0,0-6.47,0c-3.35,1.21-4.48,6-4.61,6.63q-.93,7.9-1.87,15.8a1.79,1.79,0,0,1-1.42,1.61,23.26,23.26,0,0,1-3.21.83,24.08,24.08,0,0,1-3.93.39,17.62,17.62,0,0,1-6.21-1.52,17.84,17.84,0,0,1-4.65-3,12,12,0,0,1-2.38-2.18,12.24,12.24,0,0,1-2.56-5.47l4-65a224.94,224.94,0,0,0-1.17-25.81c-.77-7.55-1.88-14.54-3.14-20.92a50.1,50.1,0,0,0-2-6.87,51.14,51.14,0,0,0-2.41-5.55c-.32-.6-.68-1.22-1.1-1.85a22.32,22.32,0,0,0-5.05-5.39,13.2,13.2,0,0,0-3.58-1,13.81,13.81,0,0,0-2-.08,11.08,11.08,0,0,0-2.16,0,11.23,11.23,0,0,0-3.69,1,18.89,18.89,0,0,0-4.39,3.18,19.65,19.65,0,0,0-1.9,2.14,29.5,29.5,0,0,0-2.23,3.92,32.13,32.13,0,0,0-1.24,3c-.46,1.25-1,2.85-1.61,5.17-.54,2-1.18,4.75-1.72,8.06a219.41,219.41,0,0,0-.92,41.11c.44,6.06,1.11,11.81,1.94,17.22a144.13,144.13,0,0,0,15.14,50.5,74,74,0,0,1-1.46,35.26A139,139,0,0,1,190.92,562a142,142,0,0,1-8,13.23,63,63,0,0,1-13.16,12.27,29.35,29.35,0,0,1-8.49,3.55,28.77,28.77,0,0,1-4.83.74,25.4,25.4,0,0,1-7.6-.52c-.94-.21-1-.33-4.39-1.4-1.23-.39-2.24-.69-2.91-.89L138,587.24a86.76,86.76,0,0,1-8.19-9,90.9,90.9,0,0,1-15.37-28.91,21.27,21.27,0,0,1,0-11.1l5.09-14.62,11.55-35L137,465.84a87.69,87.69,0,0,0,1.82-10.27c.36-3,.53-5.79.59-8.36.21-5.44.36-10.26.51-14.27a64.94,64.94,0,0,0-.29-7.39,11.85,11.85,0,0,0-.59-3.25,11.57,11.57,0,0,0-2.12-3.63,17,17,0,0,0-4.24-3.77,12.43,12.43,0,0,0-3-1.4,12.07,12.07,0,0,0-5.41-.37,22.83,22.83,0,0,0-5.71,1.48,23.18,23.18,0,0,0-6.29,3.77,48,48,0,0,0-6,7.24,48.6,48.6,0,0,0-5.56,11.09c-.34.8-.69,1.62-1,2.44a116.58,116.58,0,0,0-6,19.52A131.66,131.66,0,0,0,91.41,476c-.18,2.8-.26,5.51-.27,8.09l1.65,32,1.2,8.78a56.65,56.65,0,0,1,.94,7.93,57.1,57.1,0,0,1-.06,6,35,35,0,0,1-.66,6.93,37,37,0,0,1-1.53,5.49A78.35,78.35,0,0,1,85.27,565a75,75,0,0,1-7.74,9.59c-.5.54-2,1.88-4.33,4-1.53,1.45-2.76,2.65-3.57,3.44a11.9,11.9,0,0,1-3.23,1.66,12.23,12.23,0,0,1-6.81.22,16.4,16.4,0,0,1-2.08-2,15.34,15.34,0,0,1-3.27-5.6s-.06-.17-.85-3.77c-1.44-7.51-2.67-15.7-3.51-24.51A262.1,262.1,0,0,1,49,510.27q3.39-21.61,6.8-43.25,3.46-15,6.95-30,5.3-15.17,10.6-30.31c.9-4-.16-8-2.85-10.21a8.33,8.33,0,0,0-4.17-1.77,7.46,7.46,0,0,0-2.47.06,8.16,8.16,0,0,0-4.55,2.69c-.87,1.29-1.74,2.63-2.6,4a90.56,90.56,0,0,0-6.29,12.53q-1.38,3.1-2.68,6.34C39.64,440.47,35.18,467,35.18,467c-.54,2.41-9.6,43.88-6.8,71.68a154.37,154.37,0,0,0,3.32,20.17c2.45,9.69,6.64,21.18,6.74,21.45l6,11.8a17.72,17.72,0,0,0,3.81,5,19,19,0,0,0,12.26,4.68,16.52,16.52,0,0,0,5.7-.17,9.64,9.64,0,0,0,3.24-1.52l16.24-14.19,17.12-20.85L123,588.51c.72.9,1.52,1.81,2.41,2.72a35.25,35.25,0,0,0,12.07,7.91,39.37,39.37,0,0,0,4.39,2.07,38.61,38.61,0,0,0,8.56,2.29,25.53,25.53,0,0,0,7.39,0,26,26,0,0,0,10.9-2.44l7.46-3.92,7.39-5.91,12.33-13.85a93.94,93.94,0,0,0,8.3-13.1c1.26-2.41,2.35-4.75,3.29-7,1-3.68,2.05-7.45,2.85-11.38q2-9.72,3.95-19.45c.1-1.35.2-2.71.29-4.06a32.48,32.48,0,0,0,6.54,5.26,34.19,34.19,0,0,0,20.38,4.57c-.13,4.2-.17,7.82-.18,10.68a93.21,93.21,0,0,0,.7,11.45,18.75,18.75,0,0,0,1.68,5.72,24.32,24.32,0,0,0,1.77,2.74c.31.41.59.74.79,1l.93,1a33.54,33.54,0,0,0,2.82,2.57,9.93,9.93,0,0,0,2.9,1.38l4.83.94a24.16,24.16,0,0,0,4.67-.49,24.63,24.63,0,0,0,3-.84,13.06,13.06,0,0,0,3-1.66,16.41,16.41,0,0,0,2.45-2.33,43.52,43.52,0,0,0,3.79-4.49,37.3,37.3,0,0,0,2.57-4.16q2.86-4.54,5.71-9.09l.44-1.14,3.95,4.91a7.34,7.34,0,0,0,2.25,1.5,12.23,12.23,0,0,0,4.39.74l3.56-.28a9.34,9.34,0,0,0,2.75-1.07,21.51,21.51,0,0,0,5.48-7.1l11.49-23.29q5.12-8.31,10.24-16.63l6.58-8.73a26.61,26.61,0,0,1,3-2.73,8,8,0,0,1,3.19-1.19,6.37,6.37,0,0,1,3.21-.14,5.93,5.93,0,0,1,1.61.59,11.38,11.38,0,0,1,1.5,2,13.47,13.47,0,0,1,1.8,7.06v28.61q.45,11.54.91,23.07a31.93,31.93,0,0,0,1.61,5.51,31.1,31.1,0,0,0,2.49,5,17.22,17.22,0,0,0,13.42,8.17,18.59,18.59,0,0,0,2.83-.56,21.36,21.36,0,0,0,11-7.87q2-3.79,4.06-7.59c.38-.81.76-1.61,1.15-2.42l6.53,8a18,18,0,0,0,2.78,1.46,19.72,19.72,0,0,0,12,.81,19.94,19.94,0,0,0,5.34-3.29,20.23,20.23,0,0,0,3.44-3.81l8.56-14.63L430.58,531l5.32-4.52q.38,14.07.76,28.12a44.1,44.1,0,0,0,.61,5,42.67,42.67,0,0,0,1.53,5.93A30.59,30.59,0,0,0,447.31,579a12.37,12.37,0,0,0,2.19,1.77,11.93,11.93,0,0,0,2.2,1.11,16.32,16.32,0,0,0,4.33,1,28.13,28.13,0,0,0,3.86.16,20.23,20.23,0,0,0,7.83-2.88,47.19,47.19,0,0,0,10.75-9.32,49.4,49.4,0,0,0,10.89-23.51l0-.24c0-.16.46-3.15.48-3.31a2,2,0,0,1,.55-1.41,1.92,1.92,0,0,1,1.21-.58,28.8,28.8,0,0,0,3.89,2.55c.87.47,1.14.55,2.22,1.16a20.81,20.81,0,0,0,2.7,1.5c.79.31,2,.67,2,.67a32.34,32.34,0,0,0,8.8-.78,16.49,16.49,0,0,0,3.08-.72,16.31,16.31,0,0,0,3.89-1.94,49.42,49.42,0,0,0,5.49-4.29c1.6-1.43,3.65-3.34,6-5.69q1.68-2.06,3.38-4.29c2.39-3.16,4.53-6.25,6.44-9.24l4.83-7.32,1.4-1c.16-.11.26-.12.33-.09.29.12.25,1,.25,1s.82,17,.87,18.07q-.6,20.64-1.21,41.28a2.13,2.13,0,0,1-.36.81,2,2,0,0,1-1.07.72l-17.33.89q-2.52.35-5.27.91a76.25,76.25,0,0,0-9.82,2.75c-2.19,1.44-4.49,3.07-6.86,4.93-1.73,1.36-3.34,2.72-4.82,4-.45.53-1.18,1.39-2.09,2.44-3.17,3.67-6.24,7.08-6.25,7.1a47,47,0,0,0-3.62,6.15,48.53,48.53,0,0,0-3.63,10A62.2,62.2,0,0,0,483,640.69c.23,1,.59,2.41,1,4.16,1.69,6.48,2.6,8.82,3.28,10.16.16.32.31.58.32.61a18.91,18.91,0,0,0,2.84,3.85,13,13,0,0,0,2.72,2.21h0a53.21,53.21,0,0,0,6.4,3.41h0a22.27,22.27,0,0,0,7.71,2.14,22.61,22.61,0,0,0,8.28-1.48h0a27.71,27.71,0,0,0,7.17-2.88,30.4,30.4,0,0,0,6-4.66,123,123,0,0,0,9.19-10.89l-.12.19s1.73-2.55,2.06-3c7.65-11.28,14.8-31,15-32l.13-.76h0c1.32-12.64,2.8-18.24,2.8-18.24l.35-1.3a2.15,2.15,0,0,1,1.18-.72c1.12-.25,2.63.86,3.73,2.77l3.9,3.85,5.7,6.21,3.93,3.28a3.72,3.72,0,0,0,3.56,1.24C582.34,608.23,582.44,604.24,582.46,603.57ZM110.4,510.72c-1.41.14-2.84-3.81-3-4.22a23.83,23.83,0,0,1-1.54-6c-.29-2.41-.29-5.77-.29-5.77L105,479.3a69.48,69.48,0,0,1,3.6-22.92c.73-2.06,5.62-15.26,6.3-17.63l0-.1a21.21,21.21,0,0,1,1.54-3.79c.32-.58.93-1.63.93-1.63l.67-1a11.16,11.16,0,0,1,4.57-4.79,4.26,4.26,0,0,1,3-.77c1.81.45,3.09,3.16,3.09,6.8l-.2,10.94-.66,5.58s-2.93,9.58-2.94,9.6l0,.1a164.86,164.86,0,0,0-7.9,24.7c-1.32,5.62-2.26,10.94-2.91,15.88-.91,4.29-1.36,5.76-1.36,5.76C111.82,508.9,111.3,510.62,110.4,510.72Zm92.44-68.2c.24,15.72-.3,46.31-3.18,46.46s-7.86-27.36-6.91-55.67c.55-16.45,3.22-35.64,5.48-35.6C200.91,397.77,202.58,424.84,202.84,442.52ZM426,503.08c-1.23,4.42-8.21,18.8-8.21,18.8l-2.75,4.41c-9.78,18.24-12.86,19.76-14,19.32-2.51-1-.81-13.18,2.56-22.32,1.6-4.36,3.17-8.48,7-12.42,5.77-5.92,14.6-9.31,15.36-8.21A.48.48,0,0,1,426,503.08ZM533,610.15c-.24.73-2.62,7.84-2.62,7.84L527,627.31c-4.43,10-4.41,10-4.41,10h0c-2.64,6.3-7.53,10.47-12.56,10.43a9.91,9.91,0,0,1-4.53-1.18,25.57,25.57,0,0,1-3.22-3.55,26.24,26.24,0,0,1-4.1-8.13c-.28-1.12-.53-2.31-.73-3.55a44,44,0,0,1,.15-14.79,37.6,37.6,0,0,1,6.58-17.15c10.5-14.6,31.58-19.67,35.7-14.49C541,586.24,538.36,594.23,533,610.15Z" transform="translate(-27.85 -167.33)"/><path class="cls-2" d="M526.93,622" transform="translate(-27.85 -167.33)"/><path class="cls-2" d="M419.23,519.74" transform="translate(-27.85 -167.33)"/><path class="cls-2" d="M319.49,453.31l2.8-6.08.62-1.35,9.7,7.1a29.85,29.85,0,0,0,10.09,4.17,28.71,28.71,0,0,0,4,.56h0l2.35-.79h0l1.52-1c2.32-1.55,3.93-5.06,3.93-5.06h0l5.32-9.52h0a29.09,29.09,0,0,0,1.28-4.64,7.4,7.4,0,0,0-.91-4.56,6.17,6.17,0,0,0-1.15-1.35,6.19,6.19,0,0,0-4.22-1.28,4.19,4.19,0,0,0-.83.15,4.41,4.41,0,0,0-1.3.59,7.71,7.71,0,0,0-1.08.81,9,9,0,0,0-1.18,1.3,14.79,14.79,0,0,0-1.67,3.75c-.5,1.95-1.21,4.31-2.16,7.31-.24.64-.52.83-.74.89a2.05,2.05,0,0,1-1.13-.22L336.43,437a19.84,19.84,0,0,0-3.23-3.61,19.22,19.22,0,0,0-3.83-2.6,11,11,0,0,0-10.87,2.66l-9.11,10.79a17.94,17.94,0,0,0-.44,2.37,17.06,17.06,0,0,0,.44,6.06,6.6,6.6,0,0,0,4.48,2.77A6.75,6.75,0,0,0,319.49,453.31Z" transform="translate(-27.85 -167.33)"/><path class="cls-2" d="M251.35,491a7.48,7.48,0,0,0,1.92.54,7.19,7.19,0,0,0,1.78,0,9.92,9.92,0,0,0,1.15-.34,9.49,9.49,0,0,0,2.39-1.2,8,8,0,0,0,2.64-3,7.48,7.48,0,0,0,.72-2.4l.56-4.82v-3.12a7,7,0,0,0-2.86-3.69,6.56,6.56,0,0,0-2.47-.91,6.2,6.2,0,0,0-4.29,1,10.85,10.85,0,0,0-.91,1.25c-1.41,2.22-1.1,3.61-1.78,10a10.34,10.34,0,0,0,.19,4.62A8.61,8.61,0,0,0,251.35,491Z" transform="translate(-27.85 -167.33)"/></svg>